<mxfile host="" modified="2020-07-20T08:16:37.233Z" agent="5.0 (Windows NT 6.1; Win64; x64) AppleWebKit/537.36 (KHTML, like Gecko) Code/1.46.1 Chrome/78.0.3904.130 Electron/7.3.1 Safari/537.36" etag="OdxwCvWKPuB1fpp5knCN" version="13.1.3" pages="4">
    <diagram id="6hGFLwfOUW9BJ-s0fimq" name="spark">
        <mxGraphModel dx="822" dy="480" grid="0" gridSize="10" guides="1" tooltips="1" connect="1" arrows="1" fold="1" page="1" pageScale="1" pageWidth="827" pageHeight="1169" math="0" shadow="0">
            <root>
                <mxCell id="0"/>
                <mxCell id="1" parent="0"/>
                <mxCell id="2" value="" style="swimlane;html=1;startSize=20;horizontal=1;containerType=tree;fillColor=none;strokeColor=none;" parent="1" vertex="1">
                    <mxGeometry x="8" y="13" width="516" height="310" as="geometry"/>
                </mxCell>
                <mxCell id="3" value="" style="edgeStyle=entityRelationEdgeStyle;startArrow=none;endArrow=none;segment=10;curved=1;" parent="2" source="7" target="8" edge="1">
                    <mxGeometry relative="1" as="geometry"/>
                </mxCell>
                <mxCell id="7" value="spark" style="ellipse;whiteSpace=wrap;html=1;align=center;treeFolding=1;treeMoving=1;newEdgeStyle={&quot;edgeStyle&quot;:&quot;entityRelationEdgeStyle&quot;,&quot;startArrow&quot;:&quot;none&quot;,&quot;endArrow&quot;:&quot;none&quot;,&quot;segment&quot;:10,&quot;curved&quot;:1};" parent="2" vertex="1">
                    <mxGeometry x="6" y="69" width="100" height="40" as="geometry"/>
                </mxCell>
                <mxCell id="8" value="source" style="whiteSpace=wrap;html=1;rounded=1;arcSize=50;align=center;verticalAlign=middle;strokeWidth=1;autosize=1;spacing=4;treeFolding=1;treeMoving=1;newEdgeStyle={&quot;edgeStyle&quot;:&quot;entityRelationEdgeStyle&quot;,&quot;startArrow&quot;:&quot;none&quot;,&quot;endArrow&quot;:&quot;none&quot;,&quot;segment&quot;:10,&quot;curved&quot;:1};" parent="2" vertex="1">
                    <mxGeometry x="126" y="6" width="71" height="26" as="geometry"/>
                </mxCell>
                <mxCell id="12" value="" style="edgeStyle=entityRelationEdgeStyle;startArrow=none;endArrow=none;segment=10;curved=1;" parent="2" source="7" target="13" edge="1">
                    <mxGeometry relative="1" as="geometry">
                        <mxPoint x="114" y="102" as="sourcePoint"/>
                    </mxGeometry>
                </mxCell>
                <mxCell id="13" value="sink" style="whiteSpace=wrap;html=1;rounded=1;arcSize=50;align=center;verticalAlign=middle;strokeWidth=1;autosize=1;spacing=4;treeFolding=1;treeMoving=1;newEdgeStyle={&quot;edgeStyle&quot;:&quot;entityRelationEdgeStyle&quot;,&quot;startArrow&quot;:&quot;none&quot;,&quot;endArrow&quot;:&quot;none&quot;,&quot;segment&quot;:10,&quot;curved&quot;:1};" parent="2" vertex="1">
                    <mxGeometry x="126" y="147" width="56" height="26" as="geometry"/>
                </mxCell>
                <mxCell id="14" value="" style="edgeStyle=entityRelationEdgeStyle;startArrow=none;endArrow=none;segment=10;curved=1;" parent="2" source="7" target="15" edge="1">
                    <mxGeometry relative="1" as="geometry">
                        <mxPoint x="114" y="102" as="sourcePoint"/>
                    </mxGeometry>
                </mxCell>
                <mxCell id="15" value="process" style="whiteSpace=wrap;html=1;rounded=1;arcSize=50;align=center;verticalAlign=middle;strokeWidth=1;autosize=1;spacing=4;treeFolding=1;treeMoving=1;newEdgeStyle={&quot;edgeStyle&quot;:&quot;entityRelationEdgeStyle&quot;,&quot;startArrow&quot;:&quot;none&quot;,&quot;endArrow&quot;:&quot;none&quot;,&quot;segment&quot;:10,&quot;curved&quot;:1};" parent="2" vertex="1">
                    <mxGeometry x="123" y="76" width="77" height="26" as="geometry"/>
                </mxCell>
                <mxCell id="16" value="" style="edgeStyle=entityRelationEdgeStyle;startArrow=none;endArrow=none;segment=10;curved=1;" parent="2" source="15" target="17" edge="1">
                    <mxGeometry relative="1" as="geometry">
                        <mxPoint x="114" y="102" as="sourcePoint"/>
                    </mxGeometry>
                </mxCell>
                <mxCell id="17" value="transform" style="whiteSpace=wrap;html=1;rounded=1;arcSize=50;align=center;verticalAlign=middle;strokeWidth=1;autosize=1;spacing=4;treeFolding=1;treeMoving=1;newEdgeStyle={&quot;edgeStyle&quot;:&quot;entityRelationEdgeStyle&quot;,&quot;startArrow&quot;:&quot;none&quot;,&quot;endArrow&quot;:&quot;none&quot;,&quot;segment&quot;:10,&quot;curved&quot;:1};" parent="2" vertex="1">
                    <mxGeometry x="220" y="40" width="86" height="26" as="geometry"/>
                </mxCell>
                <mxCell id="18" value="" style="edgeStyle=entityRelationEdgeStyle;startArrow=none;endArrow=none;segment=10;curved=1;" parent="2" source="15" target="19" edge="1">
                    <mxGeometry relative="1" as="geometry">
                        <mxPoint x="208" y="102" as="sourcePoint"/>
                    </mxGeometry>
                </mxCell>
                <mxCell id="19" value="action" style="whiteSpace=wrap;html=1;rounded=1;arcSize=50;align=center;verticalAlign=middle;strokeWidth=1;autosize=1;spacing=4;treeFolding=1;treeMoving=1;newEdgeStyle={&quot;edgeStyle&quot;:&quot;entityRelationEdgeStyle&quot;,&quot;startArrow&quot;:&quot;none&quot;,&quot;endArrow&quot;:&quot;none&quot;,&quot;segment&quot;:10,&quot;curved&quot;:1};" parent="2" vertex="1">
                    <mxGeometry x="220" y="111" width="91" height="26" as="geometry"/>
                </mxCell>
            </root>
        </mxGraphModel>
    </diagram>
    <diagram id="99gnKfK7-sfSoLILaA4i" name="source">
        <mxGraphModel dx="592" dy="344" grid="0" gridSize="10" guides="1" tooltips="1" connect="1" arrows="1" fold="1" page="1" pageScale="1" pageWidth="827" pageHeight="1169" math="0" shadow="0">
            <root>
                <mxCell id="Ygu1ZQ52K7DAaln9Ueay-0"/>
                <mxCell id="Ygu1ZQ52K7DAaln9Ueay-1" parent="Ygu1ZQ52K7DAaln9Ueay-0"/>
                <mxCell id="8jXTbmB3bWSd_WYRf9ZG-0" value="&lt;table cellpadding=&quot;4&quot; cellspacing=&quot;0&quot; border=&quot;1&quot; style=&quot;font-size: 1em ; width: 100% ; height: 100%&quot;&gt;&lt;tbody&gt;&lt;tr&gt;&lt;th&gt;source&lt;br&gt;&lt;/th&gt;&lt;th&gt;content&lt;/th&gt;&lt;/tr&gt;&lt;tr&gt;&lt;td&gt;file&lt;/td&gt;&lt;td&gt;&lt;ol&gt;&lt;li&gt;&lt;font face=&quot;Courier New&quot;&gt;file:///...&lt;/font&gt;&lt;/li&gt;&lt;li&gt;&lt;font face=&quot;Courier New&quot;&gt;hdfs://...&lt;/font&gt;&lt;/li&gt;&lt;/ol&gt;&lt;/td&gt;&lt;/tr&gt;&lt;tr&gt;&lt;td&gt;text&lt;/td&gt;&lt;td&gt;&lt;ol&gt;&lt;li&gt;&lt;font face=&quot;Courier New&quot;&gt;spark.read.textFile()&lt;/font&gt;&lt;/li&gt;&lt;/ol&gt;&lt;/td&gt;&lt;/tr&gt;&lt;tr&gt;&lt;td&gt;action&lt;/td&gt;&lt;td&gt;&lt;ol&gt;&lt;li&gt;&lt;font face=&quot;Courier New&quot;&gt;.count()&lt;/font&gt;&lt;/li&gt;&lt;li&gt;&lt;font face=&quot;Courier New&quot;&gt;.first()&lt;/font&gt;&lt;/li&gt;&lt;li&gt;&lt;font face=&quot;Courier New&quot;&gt;.take(10)&lt;/font&gt;&lt;/li&gt;&lt;li&gt;&lt;font face=&quot;Courier New&quot;&gt;.collect()&lt;/font&gt;&lt;/li&gt;&lt;/ol&gt;&lt;/td&gt;&lt;/tr&gt;&lt;/tbody&gt;&lt;/table&gt; " style="verticalAlign=top;align=left;overflow=fill;fontSize=12;fontFamily=Helvetica;html=1;fillColor=none;" parent="Ygu1ZQ52K7DAaln9Ueay-1" vertex="1">
                    <mxGeometry x="13" y="11" width="397" height="237" as="geometry"/>
                </mxCell>
            </root>
        </mxGraphModel>
    </diagram>
    <diagram id="vWr77l8NIJXA0AVOj1JU" name="process">
        <mxGraphModel dx="592" dy="344" grid="0" gridSize="10" guides="1" tooltips="1" connect="1" arrows="1" fold="1" page="1" pageScale="1" pageWidth="827" pageHeight="1169" math="0" shadow="0">
            <root>
                <mxCell id="Fq4y0ZjopHzJ_FTKpw_i-0"/>
                <mxCell id="Fq4y0ZjopHzJ_FTKpw_i-1" parent="Fq4y0ZjopHzJ_FTKpw_i-0"/>
                <mxCell id="Fq4y0ZjopHzJ_FTKpw_i-2" value="&lt;table cellpadding=&quot;4&quot; cellspacing=&quot;0&quot; border=&quot;1&quot; style=&quot;font-size: 1em ; width: 100% ; height: 100%&quot;&gt;&lt;tbody&gt;&lt;tr&gt;&lt;th&gt;process&lt;br&gt;&lt;/th&gt;&lt;th&gt;content&lt;/th&gt;&lt;/tr&gt;&lt;tr&gt;&lt;td&gt;transform&lt;/td&gt;&lt;td&gt;&lt;ol&gt;&lt;li&gt;&lt;font face=&quot;Courier New&quot;&gt;.map()&lt;/font&gt;&lt;/li&gt;&lt;li&gt;&lt;font face=&quot;Courier New&quot;&gt;.flatMap()&lt;/font&gt;&lt;/li&gt;&lt;li&gt;&lt;font face=&quot;Courier New&quot;&gt;.filter()&lt;/font&gt;&lt;/li&gt;&lt;li&gt;&lt;font face=&quot;Courier New&quot;&gt;.groupByKey().count()&lt;/font&gt;&lt;/li&gt;&lt;/ol&gt;&lt;/td&gt;&lt;/tr&gt;&lt;tr&gt;&lt;td&gt;action&lt;/td&gt;&lt;td&gt;&lt;ol&gt;&lt;li&gt;&lt;font face=&quot;Courier New&quot;&gt;.count()&lt;/font&gt;&lt;/li&gt;&lt;li&gt;&lt;font face=&quot;Courier New&quot;&gt;.first()&lt;/font&gt;&lt;/li&gt;&lt;li&gt;&lt;font face=&quot;Courier New&quot;&gt;.take(10)&lt;/font&gt;&lt;/li&gt;&lt;li&gt;&lt;font face=&quot;Courier New&quot;&gt;.collect()&lt;/font&gt;&lt;/li&gt;&lt;li&gt;&lt;font face=&quot;Courier New&quot;&gt;.reduce()&lt;/font&gt;&lt;/li&gt;&lt;/ol&gt;&lt;/td&gt;&lt;/tr&gt;&lt;tr&gt;&lt;td&gt;cache&lt;/td&gt;&lt;td&gt;&lt;ol&gt;&lt;li&gt;.cache()&lt;/li&gt;&lt;li&gt;.persist()&lt;/li&gt;&lt;/ol&gt;&lt;/td&gt;&lt;/tr&gt;&lt;/tbody&gt;&lt;/table&gt; " style="verticalAlign=top;align=left;overflow=fill;fontSize=12;fontFamily=Helvetica;html=1;fillColor=none;" parent="Fq4y0ZjopHzJ_FTKpw_i-1" vertex="1">
                    <mxGeometry x="13" y="11" width="413" height="294" as="geometry"/>
                </mxCell>
            </root>
        </mxGraphModel>
    </diagram>
    <diagram id="ho86VfKQqOMVy6nYTFh-" name="snippets">
        <mxGraphModel dx="592" dy="344" grid="0" gridSize="10" guides="1" tooltips="1" connect="1" arrows="1" fold="1" page="1" pageScale="1" pageWidth="827" pageHeight="1169" math="0" shadow="0">
            <root>
                <mxCell id="hV-wvRThAPQCknKOUPM6-0"/>
                <mxCell id="hV-wvRThAPQCknKOUPM6-1" parent="hV-wvRThAPQCknKOUPM6-0"/>
                <mxCell id="hV-wvRThAPQCknKOUPM6-2" value="&lt;br&gt;import org.apache.spark.sql.SparkSession&lt;br&gt;&lt;br&gt;object SimpleApp {&lt;br&gt;&amp;nbsp; &amp;nbsp; def main(args: Array[String]) {&lt;br&gt;&amp;nbsp; &amp;nbsp; &amp;nbsp; &amp;nbsp; val spark = SparkSession.builder.appName(&quot;Simple Application&quot;).getOrCreate()&lt;br&gt;&amp;nbsp; &amp;nbsp; &amp;nbsp; &amp;nbsp; spark.read.textFile(logFile)&lt;br&gt;&amp;nbsp; &amp;nbsp; &amp;nbsp; &amp;nbsp; ...&lt;br&gt;&amp;nbsp; &amp;nbsp; &amp;nbsp; &amp;nbsp; spark.stop()&lt;br&gt;&amp;nbsp; &amp;nbsp; }&lt;br&gt;}" style="rounded=1;whiteSpace=wrap;html=1;align=left;fontFamily=Courier New;arcSize=7;spacingLeft=0;" parent="hV-wvRThAPQCknKOUPM6-1" vertex="1">
                    <mxGeometry x="10" y="19" width="806" height="177" as="geometry"/>
                </mxCell>
            </root>
        </mxGraphModel>
    </diagram>
</mxfile>